<svg width="37" height="39" viewBox="0 0 37 39" fill="none" xmlns="http://www.w3.org/2000/svg">
<path fill-rule="evenodd" clip-rule="evenodd" d="M37 32V10.2309C37 9.44219 36.6894 8.68523 36.1355 8.12383L29.0011 0.892964C28.4373 0.321624 27.6682 0 26.8655 0H3C1.34315 0 0 1.34315 0 3V32H37Z" fill="#0071E3"/>
<path d="M31 35V28V13.2426C31 12.447 30.6839 11.6839 30.1213 11.1213L25.8787 6.87868C25.3161 6.31607 24.553 6 23.7574 6H9C7.34315 6 6 7.34315 6 9V35C6 36.6569 7.34315 38 9 38H28C29.6569 38 31 36.6569 31 35Z" fill="white" stroke="#0071E3" stroke-width="1.5"/>
<rect x="22" y="34" width="5" height="1" fill="#1D1D1F"/>
<rect x="22" y="14" width="5" height="1" fill="#1D1D1F"/>
<rect x="17" y="16" width="10" height="1" fill="#1D1D1F"/>
<path fill-rule="evenodd" clip-rule="evenodd" d="M11 19H22H23H26H27V20V23V24V27V28V31V32H26H23H22H11H10V31V28V27V24V23V20V19H11ZM11 31H22V28H11L11 31ZM23 31H26V28H23L23 31ZM26 24V27H23V24H26ZM22 24V27H11L11 24H22ZM11 20L11 23H22V20H11ZM23 23V20H26V23H23Z" fill="#D2D2D2"/>
<path d="M10.918 8.44531V12H10.4468V8.44531H10.918ZM12.1582 9.92236V12H11.7065V9.3584H12.1338L12.1582 9.92236ZM12.0508 10.5791L11.8628 10.5718C11.8644 10.3911 11.8913 10.2243 11.9434 10.0713C11.9954 9.91667 12.0687 9.78239 12.1631 9.66846C12.2575 9.55452 12.3698 9.46663 12.5 9.40479C12.6318 9.34131 12.7775 9.30957 12.937 9.30957C13.0672 9.30957 13.1844 9.32747 13.2886 9.36328C13.3927 9.39746 13.4814 9.4528 13.5547 9.5293C13.6296 9.60579 13.6865 9.70508 13.7256 9.82715C13.7646 9.94759 13.7842 10.0949 13.7842 10.269V12H13.3301V10.2642C13.3301 10.1258 13.3097 10.0151 13.269 9.93213C13.2284 9.84749 13.1689 9.78646 13.0908 9.74902C13.0127 9.70996 12.9167 9.69043 12.8027 9.69043C12.6904 9.69043 12.5879 9.71403 12.4951 9.76123C12.404 9.80843 12.325 9.87354 12.2583 9.95654C12.1932 10.0396 12.1419 10.1348 12.1045 10.2422C12.0687 10.348 12.0508 10.4603 12.0508 10.5791ZM15.2734 11.5923L15.9961 9.3584H16.4575L15.5078 12H15.2051L15.2734 11.5923ZM14.6704 9.3584L15.415 11.6045L15.4663 12H15.1636L14.2065 9.3584H14.6704ZM16.7334 10.7085V10.6523C16.7334 10.4619 16.7611 10.2853 16.8164 10.1226C16.8717 9.95817 16.9515 9.81576 17.0557 9.69531C17.1598 9.57324 17.286 9.47884 17.4341 9.41211C17.5822 9.34375 17.7482 9.30957 17.9321 9.30957C18.1177 9.30957 18.2845 9.34375 18.4326 9.41211C18.5824 9.47884 18.7093 9.57324 18.8135 9.69531C18.9193 9.81576 18.9998 9.95817 19.0552 10.1226C19.1105 10.2853 19.1382 10.4619 19.1382 10.6523V10.7085C19.1382 10.8989 19.1105 11.0755 19.0552 11.2383C18.9998 11.401 18.9193 11.5435 18.8135 11.6655C18.7093 11.786 18.5832 11.8804 18.4351 11.9487C18.2886 12.0155 18.1226 12.0488 17.937 12.0488C17.7515 12.0488 17.5846 12.0155 17.4365 11.9487C17.2884 11.8804 17.1615 11.786 17.0557 11.6655C16.9515 11.5435 16.8717 11.401 16.8164 11.2383C16.7611 11.0755 16.7334 10.8989 16.7334 10.7085ZM17.1851 10.6523V10.7085C17.1851 10.8403 17.2005 10.9648 17.2314 11.082C17.2624 11.1976 17.3088 11.3001 17.3706 11.3896C17.4341 11.4792 17.513 11.55 17.6074 11.6021C17.7018 11.6525 17.8117 11.6777 17.937 11.6777C18.0607 11.6777 18.1689 11.6525 18.2617 11.6021C18.3561 11.55 18.4342 11.4792 18.4961 11.3896C18.5579 11.3001 18.6043 11.1976 18.6353 11.082C18.6678 10.9648 18.6841 10.8403 18.6841 10.7085V10.6523C18.6841 10.5221 18.6678 10.3993 18.6353 10.2837C18.6043 10.1665 18.5571 10.0632 18.4937 9.97363C18.4318 9.88249 18.3537 9.81087 18.2593 9.75879C18.1665 9.70671 18.0575 9.68066 17.9321 9.68066C17.8084 9.68066 17.6994 9.70671 17.605 9.75879C17.5122 9.81087 17.4341 9.88249 17.3706 9.97363C17.3088 10.0632 17.2624 10.1665 17.2314 10.2837C17.2005 10.3993 17.1851 10.5221 17.1851 10.6523ZM20.1953 9.3584V12H19.7412V9.3584H20.1953ZM19.707 8.65771C19.707 8.58447 19.729 8.52262 19.7729 8.47217C19.8185 8.42171 19.8853 8.39648 19.9731 8.39648C20.0594 8.39648 20.1253 8.42171 20.1709 8.47217C20.2181 8.52262 20.2417 8.58447 20.2417 8.65771C20.2417 8.7277 20.2181 8.78792 20.1709 8.83838C20.1253 8.88721 20.0594 8.91162 19.9731 8.91162C19.8853 8.91162 19.8185 8.88721 19.7729 8.83838C19.729 8.78792 19.707 8.7277 19.707 8.65771ZM21.9775 11.6777C22.085 11.6777 22.1842 11.6558 22.2754 11.6118C22.3665 11.5679 22.4414 11.5076 22.5 11.4312C22.5586 11.353 22.592 11.2643 22.6001 11.165H23.0298C23.0216 11.3213 22.9688 11.467 22.8711 11.6021C22.7751 11.7355 22.6489 11.8438 22.4927 11.9268C22.3364 12.0081 22.1647 12.0488 21.9775 12.0488C21.779 12.0488 21.6056 12.0138 21.4575 11.9438C21.311 11.8739 21.189 11.7778 21.0913 11.6558C20.9953 11.5337 20.9229 11.3937 20.874 11.2358C20.8268 11.0763 20.8032 10.9079 20.8032 10.7305V10.6279C20.8032 10.4505 20.8268 10.2829 20.874 10.125C20.9229 9.96549 20.9953 9.82471 21.0913 9.70264C21.189 9.58057 21.311 9.48454 21.4575 9.41455C21.6056 9.34456 21.779 9.30957 21.9775 9.30957C22.1842 9.30957 22.3649 9.35189 22.5195 9.43652C22.6742 9.51953 22.7954 9.63346 22.8833 9.77832C22.9728 9.92155 23.0216 10.0843 23.0298 10.2666H22.6001C22.592 10.1576 22.561 10.0591 22.5073 9.97119C22.4552 9.8833 22.3836 9.81331 22.2925 9.76123C22.203 9.70752 22.098 9.68066 21.9775 9.68066C21.8392 9.68066 21.7228 9.70833 21.6284 9.76367C21.5356 9.81738 21.4616 9.89062 21.4062 9.9834C21.3525 10.0745 21.3135 10.1763 21.2891 10.2886C21.2663 10.3993 21.2549 10.5124 21.2549 10.6279V10.7305C21.2549 10.846 21.2663 10.96 21.2891 11.0723C21.3118 11.1846 21.3501 11.2863 21.4038 11.3774C21.4591 11.4686 21.5332 11.5418 21.626 11.5972C21.7204 11.6509 21.8376 11.6777 21.9775 11.6777ZM24.6338 12.0488C24.4499 12.0488 24.283 12.0179 24.1333 11.9561C23.9852 11.8926 23.8574 11.8039 23.75 11.6899C23.6442 11.576 23.5628 11.4409 23.5059 11.2847C23.4489 11.1284 23.4204 10.9575 23.4204 10.772V10.6694C23.4204 10.4546 23.4521 10.2633 23.5156 10.0957C23.5791 9.92643 23.6654 9.7832 23.7744 9.66602C23.8835 9.54883 24.0072 9.46012 24.1455 9.3999C24.2839 9.33968 24.4271 9.30957 24.5752 9.30957C24.764 9.30957 24.9268 9.34212 25.0635 9.40723C25.2018 9.47233 25.3149 9.56348 25.4028 9.68066C25.4907 9.79622 25.5558 9.93294 25.5981 10.0908C25.6405 10.2471 25.6616 10.418 25.6616 10.6035V10.8062H23.689V10.4375H25.21V10.4033C25.2035 10.2861 25.179 10.1722 25.1367 10.0615C25.096 9.95085 25.0309 9.8597 24.9414 9.78809C24.8519 9.71647 24.7298 9.68066 24.5752 9.68066C24.4727 9.68066 24.3783 9.70264 24.292 9.74658C24.2057 9.7889 24.1317 9.85238 24.0698 9.93701C24.008 10.0216 23.96 10.125 23.9258 10.2471C23.8916 10.3691 23.8745 10.5099 23.8745 10.6694V10.772C23.8745 10.8973 23.8916 11.0153 23.9258 11.126C23.9616 11.235 24.0129 11.3311 24.0796 11.4141C24.1479 11.4971 24.2301 11.5622 24.3262 11.6094C24.4238 11.6566 24.5345 11.6802 24.6582 11.6802C24.8177 11.6802 24.9528 11.6476 25.0635 11.5825C25.1742 11.5174 25.271 11.4303 25.354 11.3213L25.6274 11.5386C25.5705 11.6248 25.498 11.707 25.4102 11.7852C25.3223 11.8633 25.214 11.9268 25.0854 11.9756C24.9585 12.0244 24.8079 12.0488 24.6338 12.0488Z" fill="#1D1D1F"/>
</svg>
